<?xml version="1.0" encoding="iso-8859-1"?>
<!-- Generator: Adobe Illustrator 18.1.1, SVG Export Plug-In . SVG Version: 6.00 Build 0)  -->
<svg xmlns="http://www.w3.org/2000/svg" xmlns:xlink="http://www.w3.org/1999/xlink" version="1.1" id="Capa_1" x="0px" y="0px" viewBox="0 0 554.469 554.469" style="enable-background:new 0 0 554.469 554.469;" xml:space="preserve" width="512px" height="512px">
<g>
	<g>
		<path d="M535.805,8.568c6.119,6.12,9.18,13.464,9.18,22.032s-3.061,15.912-9.18,22.032l-75.889,76.5    c-6.119,6.12-13.26,9.18-21.42,9.18c-8.568,0-15.912-3.06-22.031-9.18c-6.121-6.12-9.18-13.464-9.18-22.032    c0-8.976,3.059-16.32,9.18-22.032l75.887-76.5C498.065,2.856,505.307,0,514.081,0C522.849,0,530.091,2.856,535.805,8.568z     M156.977,346.392c5.712-5.712,12.954-8.565,21.726-8.565s16.014,2.854,21.726,8.565c6.12,6.12,9.18,13.467,9.18,22.032    c0,9.384-3.06,16.729-9.18,22.032L62.117,529.992c-6.12,6.12-13.26,9.18-21.42,9.18c-8.568,0-15.912-3.06-22.032-9.18    s-9.18-13.464-9.18-22.032c0-8.976,3.06-16.32,9.18-22.032L156.977,346.392L156.977,346.392z M290.393,244.8    c0-10.608-3.771-19.788-11.322-27.54c-7.548-7.752-16.83-11.628-27.846-11.628c-10.608,0-19.788,3.876-27.54,11.628    c-7.752,7.752-11.628,16.932-11.628,27.54c0,6.936-2.244,12.648-6.732,17.136c-4.488,4.488-9.996,6.732-16.524,6.732    s-12.036-2.244-16.524-6.732s-6.732-10.2-6.732-17.136c0-11.832,2.244-23.052,6.732-33.66c4.488-10.608,10.608-19.788,18.36-27.54    s16.83-13.872,27.234-18.36c10.404-4.488,21.522-6.732,33.354-6.732c11.832,0,22.95,2.244,33.354,6.732    c10.402,4.488,19.48,10.608,27.232,18.36c7.752,7.752,13.871,16.932,18.359,27.54c4.488,10.608,6.73,21.828,6.73,33.66    c0,6.936-2.242,12.648-6.73,17.136c-4.488,4.488-9.996,6.732-16.523,6.732c-6.525,0-12.037-2.244-16.521-6.732    C292.637,257.448,290.393,251.736,290.393,244.8z M251.225,67.932c23.664,0,45.901,4.488,66.708,13.464    c20.811,8.976,38.965,21.318,54.469,37.026c15.504,15.708,27.744,34.068,36.723,55.08c8.975,21.012,13.463,43.35,13.463,67.014    c0,20.4-3.467,40.392-10.404,59.976c-0.813,2.04-1.631,3.468-2.447,4.284c-4.486,8.565-8.977,16.521-13.465,23.865    c-4.08,6.528-8.465,13.362-13.156,20.504c-4.691,7.141-9.076,13.156-13.156,18.055c-0.816,1.224-1.836,2.448-3.063,3.672    c-1.225,1.224-2.447,2.652-3.672,4.284c-5.713,6.525-9.895,12.138-12.547,16.83c-2.652,4.689-3.773,12.342-3.365,22.948    c0.816,22.031,1.021,38.249,0.611,48.653c-0.408,10.404-1.223,18.666-2.447,24.786c-3.672,21.216-12.955,37.536-27.846,48.96    c-14.895,11.424-35.6,17.136-62.119,17.136h-1.224c-7.344,0-13.668-2.649-18.972-7.956c-5.304-5.304-8.16-11.832-8.568-19.584    c-0.408-3.672,0.102-7.239,1.53-10.71c1.428-3.468,3.366-6.426,5.814-8.874c5.304-6.12,11.832-9.18,19.584-9.18    c8.568-0.408,15.198-1.224,19.89-2.448s8.264-2.649,10.709-4.283c2.449-1.633,3.98-3.364,4.592-5.2s1.121-3.774,1.529-5.814    l0.611-3.06c0.814-4.488,1.225-12.444,1.225-23.868s-0.205-23.868-0.609-37.332c-0.408-10.608,0.305-19.89,2.141-27.846    s4.184-14.994,7.039-21.114c2.854-6.12,6.119-11.526,9.791-16.218s7.344-9.078,11.016-13.158c1.227-1.227,3.063-3.468,5.51-6.732    c2.447-2.854,5.201-6.63,8.264-11.32c3.059-4.691,6.221-9.59,9.484-14.688c3.266-5.1,6.223-9.996,8.873-14.688    c2.652-4.691,4.998-8.672,7.037-11.936c2.041-5.712,3.57-11.73,4.592-18.054c1.02-6.324,1.529-12.954,1.529-19.89    c0-15.912-3.061-31.008-9.18-45.288c-6.121-14.28-14.383-26.622-24.787-37.026s-22.643-18.666-36.719-24.786    c-14.076-6.12-29.071-9.18-44.982-9.18c-15.912,0-30.906,3.06-44.982,9.18c-14.076,6.12-26.316,14.382-36.72,24.786    c-10.404,10.404-18.666,22.746-24.786,37.026s-9.18,29.376-9.18,45.288c0,7.752-2.652,14.382-7.956,19.89    c-5.304,5.508-11.832,8.262-19.584,8.262s-14.382-2.754-19.89-8.262c-5.508-5.508-8.262-12.138-8.262-19.89    c0-23.664,4.488-46.002,13.464-67.014s21.216-39.372,36.72-55.08s33.66-28.05,54.468-37.026    C205.325,72.42,227.561,67.932,251.225,67.932z" fill="#FFFFFF"/>
	</g>
</g>
<g>
</g>
<g>
</g>
<g>
</g>
<g>
</g>
<g>
</g>
<g>
</g>
<g>
</g>
<g>
</g>
<g>
</g>
<g>
</g>
<g>
</g>
<g>
</g>
<g>
</g>
<g>
</g>
<g>
</g>
</svg>
