<?xml version="1.0"?>
<svg xmlns="http://www.w3.org/2000/svg" xmlns:xlink="http://www.w3.org/1999/xlink" version="1.1" id="Capa_1" x="0px" y="0px" viewBox="0 0 512.001 512.001" style="enable-background:new 0 0 512.001 512.001;" xml:space="preserve" width="512px" height="512px"><g><g>
	<g>
		<path d="M487.172,208.412c-2.71-3.983-7.178-6.429-11.997-6.563l-11.51-0.313c-8.809,19.627-25.388,34.367-46.033,40.724    l-26.191,71.964c-0.092,0.251-0.247,0.458-0.342,0.707l33.32,26.429c3.688,2.943,8.663,4.026,13.403,2.681    c4.629-1.301,8.364-4.775,10.005-9.301l41.03-112.762C490.512,217.452,489.882,212.398,487.172,208.412z" data-original="#000000" class="active-path" data-old_color="#D4A6A6" fill="#FFFFFF"/>
	</g>
</g><g>
	<g>
		<path d="M299.957,254.161c-12.003,2.523-25.922,1.368-38.698-3.281L44.182,171.884l-0.015-0.004    c-4.819-1.76-9.344-3.973-13.559-6.559l-5.647,15.515c-8.5,23.353,3.542,49.177,26.895,57.677l253.718,92.346    c23.353,8.502,49.177-3.541,57.676-26.895l20.815-57.189L299.957,254.161z" data-original="#000000" class="active-path" data-old_color="#D4A6A6" fill="#FFFFFF"/>
	</g>
</g><g>
	<g>
		<path d="M415.849,115.601L105.755,2.733C82.279-5.801,56.56,6.335,48.071,29.628L27.556,86.002    c-8.553,23.467,3.611,49.2,26.895,57.687l216.987,78.968c7.315,2.673,16.485,3.79,23.773,1.802l111.123-9.754    c14.663-3.574,26.499-14.165,31.641-28.33l4.77-13.103C451.28,149.853,439.189,124.106,415.849,115.601z M178.766,109.116    c-2.833,7.784-11.44,11.797-19.226,8.965L103.16,97.56c-7.786-2.835-11.799-11.442-8.967-19.226    c2.834-7.786,11.442-11.797,19.226-8.965l56.382,20.521C177.585,92.723,181.6,101.33,178.766,109.116z" data-original="#000000" class="active-path" data-old_color="#D4A6A6" fill="#FFFFFF"/>
	</g>
</g><g>
	<g>
		<path d="M187.235,319.714v40.287c0,16.538-13.462,30-30,30h-75v-15c0-24.853-20.147-45-45-45c-8.284,0-15,6.714-15,15v152    c0,8.284,6.716,15,15,15c24.853,0,45-20.147,45-45v-17h75c49.629,0,90-40.371,90-90v-18.444L187.235,319.714z" data-original="#000000" class="active-path" data-old_color="#D4A6A6" fill="#FFFFFF"/>
	</g>
</g></g> </svg>
