<?xml version="1.0"?>
<svg xmlns="http://www.w3.org/2000/svg" xmlns:xlink="http://www.w3.org/1999/xlink" version="1.1" id="Capa_1" x="0px" y="0px" width="512px" height="512px" viewBox="0 0 484.5 484.5" style="enable-background:new 0 0 484.5 484.5;" xml:space="preserve"><g><g>
	<g id="keyboard-voice">
		<path d="M242.25,306c43.35,0,76.5-33.15,76.5-76.5v-153c0-43.35-33.15-76.5-76.5-76.5c-43.35,0-76.5,33.15-76.5,76.5v153    C165.75,272.85,198.9,306,242.25,306z M377.4,229.5c0,76.5-63.75,130.05-135.15,130.05c-71.4,0-135.15-53.55-135.15-130.05H63.75    c0,86.7,68.85,158.1,153,170.85v84.15h51v-84.15c84.15-12.75,153-84.149,153-170.85H377.4L377.4,229.5z" data-original="#000000" class="active-path" data-old_color="#D2A0A0" fill="#FFFFFF"/>
	</g>
</g></g> </svg>
